<svg 
 xmlns="http://www.w3.org/2000/svg"
 xmlns:xlink="http://www.w3.org/1999/xlink"
 width="50px" height="50px">
<defs>
<linearGradient id="PSgrad_0" x1="0%" x2="0%" y1="100%" y2="0%">
  <stop offset="0%" stop-color="rgb(174,206,86)" stop-opacity="1" />
  <stop offset="52%" stop-color="rgb(70,183,80)" stop-opacity="1" />
  <stop offset="100%" stop-color="rgb(37,131,102)" stop-opacity="1" />
</linearGradient>

</defs>
<path fill-rule="evenodd"  fill="rgb(0, 0, 0)"
 d="M35.484,50.000 L35.484,43.548 C35.484,41.185 36.946,39.159 39.012,38.319 C37.368,37.148 36.290,35.231 36.290,33.064 C36.290,29.507 39.185,26.613 42.742,26.613 C46.299,26.613 49.193,29.507 49.193,33.064 C49.193,35.231 48.116,37.148 46.472,38.319 C48.538,39.159 50.000,41.185 50.000,43.548 L50.000,50.000 L35.484,50.000 ZM44.231,48.387 L43.410,42.643 L42.073,42.643 L41.253,48.387 L44.231,48.387 ZM41.839,41.030 L43.644,41.030 L44.509,39.531 C44.456,39.530 44.407,39.516 44.355,39.516 L41.129,39.516 C41.076,39.516 41.027,39.530 40.975,39.531 L41.839,41.030 ZM37.097,43.548 L37.097,48.387 L39.623,48.387 L40.536,41.997 L39.352,39.947 C38.022,40.606 37.097,41.966 37.097,43.548 ZM47.581,33.064 C47.581,30.396 45.410,28.226 42.742,28.226 C40.073,28.226 37.903,30.396 37.903,33.064 C37.903,35.733 40.073,37.903 42.742,37.903 C45.410,37.903 47.581,35.733 47.581,33.064 ZM48.387,43.548 C48.387,41.966 47.462,40.606 46.132,39.947 L44.948,41.997 L45.861,48.387 L48.387,48.387 L48.387,43.548 ZM42.742,23.527 L35.992,17.742 L33.871,17.742 L33.871,20.968 L13.968,20.968 L7.258,25.760 L7.258,20.968 L-0.000,20.968 L-0.000,3.226 L16.129,3.226 L16.129,-0.000 L50.000,-0.000 L50.000,17.742 L42.742,17.742 L42.742,23.527 ZM16.129,4.839 L1.613,4.839 L1.613,19.355 L8.871,19.355 L8.871,22.627 L13.452,19.355 L32.258,19.355 L32.258,17.742 L16.129,17.742 L16.129,4.839 ZM48.387,16.129 L48.387,1.613 L17.742,1.613 L17.742,16.129 L36.589,16.129 L41.129,20.021 L41.129,16.129 L48.387,16.129 ZM19.355,12.903 L43.548,12.903 L43.548,14.516 L19.355,14.516 L19.355,12.903 ZM46.774,14.516 L45.161,14.516 L45.161,12.903 L46.774,12.903 L46.774,14.516 ZM19.355,8.064 L46.774,8.064 L46.774,9.677 L19.355,9.677 L19.355,8.064 ZM19.355,3.226 L46.774,3.226 L46.774,4.839 L19.355,4.839 L19.355,3.226 ZM12.903,16.129 L14.516,16.129 L14.516,17.742 L12.903,17.742 L12.903,16.129 ZM3.226,11.290 L14.516,11.290 L14.516,12.903 L3.226,12.903 L3.226,11.290 ZM3.226,6.451 L14.516,6.451 L14.516,8.064 L3.226,8.064 L3.226,6.451 ZM11.290,17.742 L3.226,17.742 L3.226,16.129 L11.290,16.129 L11.290,17.742 ZM3.528,38.319 C1.884,37.148 0.806,35.231 0.806,33.064 C0.806,29.507 3.701,26.613 7.258,26.613 C10.815,26.613 13.710,29.507 13.710,33.064 C13.710,35.231 12.632,37.148 10.988,38.319 C13.054,39.159 14.516,41.185 14.516,43.548 L14.516,50.000 L-0.000,50.000 L-0.000,43.548 C-0.000,41.185 1.462,39.159 3.528,38.319 ZM12.097,33.064 C12.097,30.396 9.927,28.226 7.258,28.226 C4.589,28.226 2.419,30.396 2.419,33.064 C2.419,35.733 4.589,37.903 7.258,37.903 C9.927,37.903 12.097,35.733 12.097,33.064 ZM10.377,48.387 L12.903,48.387 L12.903,43.548 C12.903,41.966 11.978,40.606 10.648,39.947 L9.464,41.997 L10.377,48.387 ZM8.747,48.387 L7.926,42.643 L6.589,42.643 L5.768,48.387 L8.747,48.387 ZM6.356,41.030 L8.160,41.030 L9.025,39.531 C8.972,39.530 8.923,39.516 8.871,39.516 L5.645,39.516 C5.593,39.516 5.543,39.530 5.491,39.531 L6.356,41.030 ZM1.613,48.387 L4.139,48.387 L5.052,41.997 L3.868,39.947 C2.538,40.606 1.613,41.966 1.613,43.548 L1.613,48.387 ZM21.270,38.319 C19.626,37.148 18.548,35.231 18.548,33.064 C18.548,29.507 21.443,26.613 25.000,26.613 C28.557,26.613 31.452,29.507 31.452,33.064 C31.452,35.231 30.374,37.148 28.730,38.319 C30.796,39.159 32.258,41.185 32.258,43.548 L32.258,50.000 L17.742,50.000 L17.742,43.548 C17.742,41.185 19.204,39.159 21.270,38.319 ZM29.839,33.064 C29.839,30.396 27.668,28.226 25.000,28.226 C22.331,28.226 20.161,30.396 20.161,33.064 C20.161,35.733 22.331,37.903 25.000,37.903 C27.668,37.903 29.839,35.733 29.839,33.064 ZM28.119,48.387 L30.645,48.387 L30.645,43.548 C30.645,41.966 29.720,40.606 28.390,39.947 L27.206,41.997 L28.119,48.387 ZM26.489,48.387 L25.668,42.643 L24.331,42.643 L23.511,48.387 L26.489,48.387 ZM24.098,41.030 L25.902,41.030 L26.767,39.531 C26.714,39.530 26.665,39.516 26.613,39.516 L23.387,39.516 C23.335,39.516 23.285,39.530 23.233,39.531 L24.098,41.030 ZM19.355,48.387 L21.881,48.387 L22.794,41.997 L21.610,39.947 C20.280,40.606 19.355,41.966 19.355,43.548 L19.355,48.387 Z"/>
<path fill="url(#PSgrad_0)"
 d="M35.484,50.000 L35.484,43.548 C35.484,41.185 36.946,39.159 39.012,38.319 C37.368,37.148 36.290,35.231 36.290,33.064 C36.290,29.507 39.185,26.613 42.742,26.613 C46.299,26.613 49.193,29.507 49.193,33.064 C49.193,35.231 48.116,37.148 46.472,38.319 C48.538,39.159 50.000,41.185 50.000,43.548 L50.000,50.000 L35.484,50.000 ZM44.231,48.387 L43.410,42.643 L42.073,42.643 L41.253,48.387 L44.231,48.387 ZM41.839,41.030 L43.644,41.030 L44.509,39.531 C44.456,39.530 44.407,39.516 44.355,39.516 L41.129,39.516 C41.076,39.516 41.027,39.530 40.975,39.531 L41.839,41.030 ZM37.097,43.548 L37.097,48.387 L39.623,48.387 L40.536,41.997 L39.352,39.947 C38.022,40.606 37.097,41.966 37.097,43.548 ZM47.581,33.064 C47.581,30.396 45.410,28.226 42.742,28.226 C40.073,28.226 37.903,30.396 37.903,33.064 C37.903,35.733 40.073,37.903 42.742,37.903 C45.410,37.903 47.581,35.733 47.581,33.064 ZM48.387,43.548 C48.387,41.966 47.462,40.606 46.132,39.947 L44.948,41.997 L45.861,48.387 L48.387,48.387 L48.387,43.548 ZM42.742,23.527 L35.992,17.742 L33.871,17.742 L33.871,20.968 L13.968,20.968 L7.258,25.760 L7.258,20.968 L-0.000,20.968 L-0.000,3.226 L16.129,3.226 L16.129,-0.000 L50.000,-0.000 L50.000,17.742 L42.742,17.742 L42.742,23.527 ZM16.129,4.839 L1.613,4.839 L1.613,19.355 L8.871,19.355 L8.871,22.627 L13.452,19.355 L32.258,19.355 L32.258,17.742 L16.129,17.742 L16.129,4.839 ZM48.387,16.129 L48.387,1.613 L17.742,1.613 L17.742,16.129 L36.589,16.129 L41.129,20.021 L41.129,16.129 L48.387,16.129 ZM19.355,12.903 L43.548,12.903 L43.548,14.516 L19.355,14.516 L19.355,12.903 ZM46.774,14.516 L45.161,14.516 L45.161,12.903 L46.774,12.903 L46.774,14.516 ZM19.355,8.064 L46.774,8.064 L46.774,9.677 L19.355,9.677 L19.355,8.064 ZM19.355,3.226 L46.774,3.226 L46.774,4.839 L19.355,4.839 L19.355,3.226 ZM12.903,16.129 L14.516,16.129 L14.516,17.742 L12.903,17.742 L12.903,16.129 ZM3.226,11.290 L14.516,11.290 L14.516,12.903 L3.226,12.903 L3.226,11.290 ZM3.226,6.451 L14.516,6.451 L14.516,8.064 L3.226,8.064 L3.226,6.451 ZM11.290,17.742 L3.226,17.742 L3.226,16.129 L11.290,16.129 L11.290,17.742 ZM3.528,38.319 C1.884,37.148 0.806,35.231 0.806,33.064 C0.806,29.507 3.701,26.613 7.258,26.613 C10.815,26.613 13.710,29.507 13.710,33.064 C13.710,35.231 12.632,37.148 10.988,38.319 C13.054,39.159 14.516,41.185 14.516,43.548 L14.516,50.000 L-0.000,50.000 L-0.000,43.548 C-0.000,41.185 1.462,39.159 3.528,38.319 ZM12.097,33.064 C12.097,30.396 9.927,28.226 7.258,28.226 C4.589,28.226 2.419,30.396 2.419,33.064 C2.419,35.733 4.589,37.903 7.258,37.903 C9.927,37.903 12.097,35.733 12.097,33.064 ZM10.377,48.387 L12.903,48.387 L12.903,43.548 C12.903,41.966 11.978,40.606 10.648,39.947 L9.464,41.997 L10.377,48.387 ZM8.747,48.387 L7.926,42.643 L6.589,42.643 L5.768,48.387 L8.747,48.387 ZM6.356,41.030 L8.160,41.030 L9.025,39.531 C8.972,39.530 8.923,39.516 8.871,39.516 L5.645,39.516 C5.593,39.516 5.543,39.530 5.491,39.531 L6.356,41.030 ZM1.613,48.387 L4.139,48.387 L5.052,41.997 L3.868,39.947 C2.538,40.606 1.613,41.966 1.613,43.548 L1.613,48.387 ZM21.270,38.319 C19.626,37.148 18.548,35.231 18.548,33.064 C18.548,29.507 21.443,26.613 25.000,26.613 C28.557,26.613 31.452,29.507 31.452,33.064 C31.452,35.231 30.374,37.148 28.730,38.319 C30.796,39.159 32.258,41.185 32.258,43.548 L32.258,50.000 L17.742,50.000 L17.742,43.548 C17.742,41.185 19.204,39.159 21.270,38.319 ZM29.839,33.064 C29.839,30.396 27.668,28.226 25.000,28.226 C22.331,28.226 20.161,30.396 20.161,33.064 C20.161,35.733 22.331,37.903 25.000,37.903 C27.668,37.903 29.839,35.733 29.839,33.064 ZM28.119,48.387 L30.645,48.387 L30.645,43.548 C30.645,41.966 29.720,40.606 28.390,39.947 L27.206,41.997 L28.119,48.387 ZM26.489,48.387 L25.668,42.643 L24.331,42.643 L23.511,48.387 L26.489,48.387 ZM24.098,41.030 L25.902,41.030 L26.767,39.531 C26.714,39.530 26.665,39.516 26.613,39.516 L23.387,39.516 C23.335,39.516 23.285,39.530 23.233,39.531 L24.098,41.030 ZM19.355,48.387 L21.881,48.387 L22.794,41.997 L21.610,39.947 C20.280,40.606 19.355,41.966 19.355,43.548 L19.355,48.387 Z"/>
</svg>