<svg 
 xmlns="http://www.w3.org/2000/svg"
 xmlns:xlink="http://www.w3.org/1999/xlink"
 width="50px" height="50px">
<defs>
<linearGradient id="PSgrad_0" x1="0%" x2="0%" y1="100%" y2="0%">
  <stop offset="0%" stop-color="rgb(174,206,86)" stop-opacity="1" />
  <stop offset="52%" stop-color="rgb(70,183,80)" stop-opacity="1" />
  <stop offset="100%" stop-color="rgb(37,131,102)" stop-opacity="1" />
</linearGradient>

</defs>
<path fill-rule="evenodd"  fill="rgb(0, 0, 0)"
 d="M25.000,50.000 C12.881,50.000 -0.000,47.456 -0.000,42.742 C-0.000,38.807 8.778,36.620 16.966,35.848 L16.935,35.818 L16.935,25.806 L15.322,25.806 L15.322,24.193 L16.935,24.193 L16.935,22.581 L15.322,22.581 L15.322,20.968 L16.935,20.968 L16.935,20.393 C15.373,18.510 14.516,16.149 14.516,13.710 C14.516,7.929 19.219,3.226 25.000,3.226 C30.781,3.226 35.484,7.929 35.484,13.710 C35.484,16.149 34.627,18.510 33.064,20.393 L33.064,20.968 L34.677,20.968 L34.677,22.581 L33.064,22.581 L33.064,24.193 L34.677,24.193 L34.677,25.806 L33.064,25.806 L33.064,35.818 L33.034,35.848 C41.222,36.620 50.000,38.807 50.000,42.742 C50.000,47.456 37.119,50.000 25.000,50.000 ZM33.871,13.710 C33.871,8.818 29.891,4.839 25.000,4.839 C20.109,4.839 16.129,8.818 16.129,13.710 C16.129,15.860 16.917,17.938 18.347,19.563 L18.548,19.791 L18.548,20.968 L24.193,20.968 L24.193,16.821 C22.806,16.460 21.774,15.209 21.774,13.710 C21.774,11.931 23.221,10.484 25.000,10.484 C26.779,10.484 28.226,11.931 28.226,13.710 C28.226,15.209 27.194,16.460 25.806,16.821 L25.806,20.968 L31.451,20.968 L31.451,19.791 L31.652,19.563 C33.083,17.938 33.871,15.860 33.871,13.710 ZM25.000,41.602 L30.311,36.290 L19.689,36.290 L25.000,41.602 ZM21.496,40.379 C12.352,40.658 7.273,41.910 6.502,42.741 C7.335,43.610 13.436,45.161 25.000,45.161 C36.564,45.161 42.664,43.610 43.498,42.741 C42.727,41.911 37.647,40.658 28.503,40.379 L25.000,43.882 L21.496,40.379 ZM31.451,34.677 L31.451,25.806 L28.226,25.806 L28.226,34.677 L31.451,34.677 ZM26.613,34.677 L26.613,25.806 L23.387,25.806 L23.387,34.677 L26.613,34.677 ZM21.774,34.677 L21.774,25.806 L18.548,25.806 L18.548,34.677 L21.774,34.677 ZM31.451,24.193 L31.451,22.581 L18.548,22.581 L18.548,24.193 L31.451,24.193 ZM25.000,15.323 C25.889,15.323 26.613,14.599 26.613,13.710 C26.613,12.820 25.889,12.097 25.000,12.097 C24.110,12.097 23.387,12.820 23.387,13.710 C23.387,14.599 24.110,15.323 25.000,15.323 ZM31.540,37.342 L30.062,38.820 C35.718,39.068 45.161,39.906 45.161,42.742 C45.161,46.660 27.064,46.774 25.000,46.774 C22.936,46.774 4.839,46.660 4.839,42.742 C4.839,39.906 14.282,39.068 19.938,38.820 L18.460,37.342 C7.910,38.139 1.613,40.697 1.613,42.742 C1.613,45.099 10.510,48.387 25.000,48.387 C39.490,48.387 48.387,45.099 48.387,42.742 C48.387,40.697 42.089,38.139 31.540,37.342 ZM40.322,12.903 L45.161,12.903 L45.161,14.516 L40.322,14.516 L40.322,12.903 ZM37.097,12.903 L38.710,12.903 L38.710,14.516 L37.097,14.516 L37.097,12.903 ZM37.971,18.213 L37.353,19.703 L35.863,19.085 L36.481,17.595 L37.971,18.213 ZM35.866,8.335 L37.356,7.718 L37.974,9.208 L36.483,9.825 L35.866,8.335 ZM32.981,4.588 L34.121,3.448 L35.262,4.588 L34.121,5.729 L32.981,4.588 ZM28.882,2.223 L29.499,0.733 L30.989,1.351 L30.372,2.841 L28.882,2.223 ZM24.193,-0.000 L25.806,-0.000 L25.806,1.613 L24.193,1.613 L24.193,-0.000 ZM19.007,1.352 L20.497,0.734 L21.115,2.224 L19.625,2.842 L19.007,1.352 ZM14.736,4.586 L15.877,3.445 L17.017,4.586 L15.877,5.726 L14.736,4.586 ZM12.024,9.210 L12.642,7.720 L14.132,8.338 L13.514,9.828 L12.024,9.210 ZM14.131,19.082 L12.641,19.699 L12.023,18.209 L13.513,17.592 L14.131,19.082 ZM11.290,12.903 L12.903,12.903 L12.903,14.516 L11.290,14.516 L11.290,12.903 ZM4.839,12.903 L9.677,12.903 L9.677,14.516 L4.839,14.516 L4.839,12.903 Z"/>
<path fill="url(#PSgrad_0)"
 d="M25.000,50.000 C12.881,50.000 -0.000,47.456 -0.000,42.742 C-0.000,38.807 8.778,36.620 16.966,35.848 L16.935,35.818 L16.935,25.806 L15.322,25.806 L15.322,24.193 L16.935,24.193 L16.935,22.581 L15.322,22.581 L15.322,20.968 L16.935,20.968 L16.935,20.393 C15.373,18.510 14.516,16.149 14.516,13.710 C14.516,7.929 19.219,3.226 25.000,3.226 C30.781,3.226 35.484,7.929 35.484,13.710 C35.484,16.149 34.627,18.510 33.064,20.393 L33.064,20.968 L34.677,20.968 L34.677,22.581 L33.064,22.581 L33.064,24.193 L34.677,24.193 L34.677,25.806 L33.064,25.806 L33.064,35.818 L33.034,35.848 C41.222,36.620 50.000,38.807 50.000,42.742 C50.000,47.456 37.119,50.000 25.000,50.000 ZM33.871,13.710 C33.871,8.818 29.891,4.839 25.000,4.839 C20.109,4.839 16.129,8.818 16.129,13.710 C16.129,15.860 16.917,17.938 18.347,19.563 L18.548,19.791 L18.548,20.968 L24.193,20.968 L24.193,16.821 C22.806,16.460 21.774,15.209 21.774,13.710 C21.774,11.931 23.221,10.484 25.000,10.484 C26.779,10.484 28.226,11.931 28.226,13.710 C28.226,15.209 27.194,16.460 25.806,16.821 L25.806,20.968 L31.451,20.968 L31.451,19.791 L31.652,19.563 C33.083,17.938 33.871,15.860 33.871,13.710 ZM25.000,41.602 L30.311,36.290 L19.689,36.290 L25.000,41.602 ZM21.496,40.379 C12.352,40.658 7.273,41.910 6.502,42.741 C7.335,43.610 13.436,45.161 25.000,45.161 C36.564,45.161 42.664,43.610 43.498,42.741 C42.727,41.911 37.647,40.658 28.503,40.379 L25.000,43.882 L21.496,40.379 ZM31.451,34.677 L31.451,25.806 L28.226,25.806 L28.226,34.677 L31.451,34.677 ZM26.613,34.677 L26.613,25.806 L23.387,25.806 L23.387,34.677 L26.613,34.677 ZM21.774,34.677 L21.774,25.806 L18.548,25.806 L18.548,34.677 L21.774,34.677 ZM31.451,24.193 L31.451,22.581 L18.548,22.581 L18.548,24.193 L31.451,24.193 ZM25.000,15.323 C25.889,15.323 26.613,14.599 26.613,13.710 C26.613,12.820 25.889,12.097 25.000,12.097 C24.110,12.097 23.387,12.820 23.387,13.710 C23.387,14.599 24.110,15.323 25.000,15.323 ZM31.540,37.342 L30.062,38.820 C35.718,39.068 45.161,39.906 45.161,42.742 C45.161,46.660 27.064,46.774 25.000,46.774 C22.936,46.774 4.839,46.660 4.839,42.742 C4.839,39.906 14.282,39.068 19.938,38.820 L18.460,37.342 C7.910,38.139 1.613,40.697 1.613,42.742 C1.613,45.099 10.510,48.387 25.000,48.387 C39.490,48.387 48.387,45.099 48.387,42.742 C48.387,40.697 42.089,38.139 31.540,37.342 ZM40.322,12.903 L45.161,12.903 L45.161,14.516 L40.322,14.516 L40.322,12.903 ZM37.097,12.903 L38.710,12.903 L38.710,14.516 L37.097,14.516 L37.097,12.903 ZM37.971,18.213 L37.353,19.703 L35.863,19.085 L36.481,17.595 L37.971,18.213 ZM35.866,8.335 L37.356,7.718 L37.974,9.208 L36.483,9.825 L35.866,8.335 ZM32.981,4.588 L34.121,3.448 L35.262,4.588 L34.121,5.729 L32.981,4.588 ZM28.882,2.223 L29.499,0.733 L30.989,1.351 L30.372,2.841 L28.882,2.223 ZM24.193,-0.000 L25.806,-0.000 L25.806,1.613 L24.193,1.613 L24.193,-0.000 ZM19.007,1.352 L20.497,0.734 L21.115,2.224 L19.625,2.842 L19.007,1.352 ZM14.736,4.586 L15.877,3.445 L17.017,4.586 L15.877,5.726 L14.736,4.586 ZM12.024,9.210 L12.642,7.720 L14.132,8.338 L13.514,9.828 L12.024,9.210 ZM14.131,19.082 L12.641,19.699 L12.023,18.209 L13.513,17.592 L14.131,19.082 ZM11.290,12.903 L12.903,12.903 L12.903,14.516 L11.290,14.516 L11.290,12.903 ZM4.839,12.903 L9.677,12.903 L9.677,14.516 L4.839,14.516 L4.839,12.903 Z"/>
</svg>