<svg 
 xmlns="http://www.w3.org/2000/svg"
 xmlns:xlink="http://www.w3.org/1999/xlink"
 width="40px" height="40px">
<defs>
<linearGradient id="PSgrad_0" x1="0%" x2="0%" y1="100%" y2="0%">
  <stop offset="0%" stop-color="rgb(174,206,86)" stop-opacity="1" />
  <stop offset="52%" stop-color="rgb(70,183,80)" stop-opacity="1" />
  <stop offset="100%" stop-color="rgb(37,131,102)" stop-opacity="1" />
</linearGradient>

</defs>
<path fill-rule="evenodd"  fill="rgb(0, 0, 0)"
 d="M39.705,23.887 C39.593,23.962 39.463,24.000 39.333,24.000 C39.247,24.000 39.161,23.983 39.079,23.949 L28.667,19.662 L28.667,28.519 C28.667,30.478 27.534,32.141 25.711,32.861 C23.889,33.577 21.925,33.135 20.589,31.703 L19.333,30.358 L19.333,39.333 C19.333,39.701 19.035,40.000 18.667,40.000 L0.667,40.000 C0.299,40.000 0.000,39.701 0.000,39.333 L0.000,24.667 C0.000,22.093 2.093,20.000 4.667,20.000 L6.000,20.000 L6.000,19.333 C4.529,19.333 3.333,18.137 3.333,16.667 L3.333,12.667 L2.667,12.667 C1.564,12.667 0.667,11.769 0.667,10.667 C0.667,9.799 1.226,9.065 2.000,8.789 L2.000,3.333 C2.000,1.495 3.495,0.000 5.333,0.000 L18.000,0.000 C18.368,0.000 18.667,0.299 18.667,0.667 C18.667,2.587 17.306,4.195 15.499,4.578 L17.313,11.838 C17.363,12.037 17.318,12.248 17.192,12.410 C17.066,12.572 16.872,12.667 16.667,12.667 L15.333,12.667 L15.333,14.000 C15.333,14.368 15.035,14.667 14.667,14.667 L13.333,14.667 C13.333,15.402 13.931,16.000 14.667,16.000 C15.035,16.000 15.333,16.299 15.333,16.667 C15.333,18.137 14.137,19.333 12.667,19.333 L12.667,20.000 L16.204,20.000 C17.535,20.000 18.807,20.571 19.692,21.566 L22.667,24.913 L22.667,18.667 L22.667,12.000 C22.667,11.776 22.779,11.567 22.967,11.443 C23.153,11.321 23.391,11.300 23.596,11.387 L28.005,13.277 L39.079,8.717 C39.285,8.633 39.519,8.655 39.705,8.779 C39.889,8.903 40.000,9.111 40.000,9.333 L40.000,23.333 C40.000,23.555 39.889,23.763 39.705,23.887 ZM9.333,29.843 L9.977,28.555 L9.512,25.299 C9.453,25.315 9.394,25.333 9.333,25.333 C9.273,25.333 9.213,25.315 9.155,25.299 L8.689,28.555 L9.333,29.843 ZM9.333,21.255 L11.333,20.255 L11.333,19.333 L7.333,19.333 L7.333,20.255 L9.333,21.255 ZM8.943,23.333 L9.333,23.724 L9.724,23.333 L9.333,22.943 L8.943,23.333 ZM3.672,21.502 C2.322,21.928 1.333,23.177 1.333,24.667 L1.333,38.667 L8.667,38.667 L8.667,31.491 L3.672,21.502 ZM7.960,24.236 L7.915,24.191 L6.859,24.895 L7.642,26.460 L7.960,24.236 ZM5.079,21.333 L6.259,23.693 L7.575,22.815 L8.208,22.183 L6.509,21.333 L5.079,21.333 ZM2.667,10.000 C2.299,10.000 2.000,10.299 2.000,10.667 C2.000,11.034 2.299,11.333 2.667,11.333 L3.333,11.333 L3.333,10.000 L2.667,10.000 ZM17.249,1.333 L5.333,1.333 C4.231,1.333 3.333,2.231 3.333,3.333 L3.333,8.667 L4.000,8.667 C5.471,8.667 6.667,7.471 6.667,6.000 L6.667,4.000 C6.667,3.632 6.965,3.333 7.333,3.333 L14.667,3.333 C15.907,3.333 16.952,2.482 17.249,1.333 ZM13.882,17.215 C12.793,16.879 12.000,15.864 12.000,14.667 L12.000,14.000 C12.000,13.632 12.299,13.333 12.667,13.333 L14.000,13.333 L14.000,12.000 C14.000,11.632 14.299,11.333 14.667,11.333 L15.813,11.333 L14.146,4.667 L8.000,4.667 L8.000,6.000 C8.000,6.229 7.976,6.453 7.939,6.671 C7.935,6.698 7.933,6.725 7.927,6.751 C7.888,6.957 7.831,7.157 7.761,7.351 C7.749,7.384 7.737,7.417 7.724,7.450 C7.651,7.639 7.563,7.821 7.463,7.995 C7.445,8.024 7.427,8.053 7.410,8.081 C7.303,8.255 7.186,8.423 7.055,8.578 C7.040,8.595 7.024,8.611 7.009,8.628 C6.870,8.787 6.721,8.938 6.558,9.073 C6.555,9.075 6.552,9.078 6.549,9.081 C6.387,9.215 6.211,9.335 6.028,9.443 C6.005,9.456 5.983,9.471 5.959,9.485 C5.781,9.584 5.595,9.669 5.403,9.741 C5.371,9.753 5.339,9.766 5.305,9.777 C5.113,9.845 4.913,9.897 4.709,9.934 C4.694,9.936 4.681,9.942 4.667,9.945 L4.667,12.000 L4.667,16.667 C4.667,17.402 5.265,18.000 6.000,18.000 L6.667,18.000 L12.000,18.000 L12.667,18.000 C13.207,18.000 13.672,17.678 13.882,17.215 ZM12.157,21.333 L10.459,22.183 L11.091,22.815 L12.408,23.693 L13.588,21.333 L12.157,21.333 ZM10.707,24.236 L11.025,26.460 L11.807,24.895 L10.751,24.191 L10.707,24.236 ZM27.333,14.439 L24.000,13.011 L24.000,18.000 L24.146,18.000 L24.687,15.838 C24.761,15.541 25.027,15.333 25.333,15.333 L27.333,15.333 L27.333,14.439 ZM27.333,18.667 L27.333,16.667 L25.854,16.667 L25.313,18.829 C25.239,19.125 24.973,19.333 24.667,19.333 L24.000,19.333 L24.000,20.667 L27.333,20.667 L27.333,18.667 ZM27.333,22.000 L24.000,22.000 L24.000,26.667 C24.000,26.943 23.829,27.191 23.571,27.289 C23.312,27.387 23.020,27.317 22.835,27.109 L18.695,22.452 C18.063,21.741 17.155,21.333 16.204,21.333 L15.079,21.333 L10.000,31.491 L10.000,38.667 L18.000,38.667 L18.000,28.667 C18.000,28.393 18.167,28.147 18.421,28.047 C18.677,27.947 18.967,28.011 19.153,28.212 L21.563,30.793 C22.704,32.016 24.201,32.023 25.222,31.620 C26.243,31.217 27.333,30.192 27.333,28.519 L27.333,22.000 ZM38.667,10.329 L28.667,14.447 L28.667,16.000 L28.667,18.220 L38.667,22.338 L38.667,10.329 ZM12.667,29.333 L16.667,29.333 L16.667,30.667 L12.667,30.667 L12.667,29.333 ZM9.115,8.138 L10.057,7.195 C10.577,7.715 11.423,7.715 11.943,7.195 L12.885,8.138 C12.365,8.658 11.683,8.918 11.000,8.918 C10.317,8.918 9.635,8.658 9.115,8.138 ZM34.817,6.906 L38.150,2.906 L39.174,3.759 L35.841,7.759 L34.817,6.906 ZM32.000,2.000 L33.333,2.000 L33.333,7.333 L32.000,7.333 L32.000,2.000 ZM26.154,3.760 L27.178,2.906 L30.511,6.906 L29.487,7.760 L26.154,3.760 Z"/>
<path fill="url(#PSgrad_0)"
 d="M39.705,23.887 C39.593,23.962 39.463,24.000 39.333,24.000 C39.247,24.000 39.161,23.983 39.079,23.949 L28.667,19.662 L28.667,28.519 C28.667,30.478 27.534,32.141 25.711,32.861 C23.889,33.577 21.925,33.135 20.589,31.703 L19.333,30.358 L19.333,39.333 C19.333,39.701 19.035,40.000 18.667,40.000 L0.667,40.000 C0.299,40.000 0.000,39.701 0.000,39.333 L0.000,24.667 C0.000,22.093 2.093,20.000 4.667,20.000 L6.000,20.000 L6.000,19.333 C4.529,19.333 3.333,18.137 3.333,16.667 L3.333,12.667 L2.667,12.667 C1.564,12.667 0.667,11.769 0.667,10.667 C0.667,9.799 1.226,9.065 2.000,8.789 L2.000,3.333 C2.000,1.495 3.495,0.000 5.333,0.000 L18.000,0.000 C18.368,0.000 18.667,0.299 18.667,0.667 C18.667,2.587 17.306,4.195 15.499,4.578 L17.313,11.838 C17.363,12.037 17.318,12.248 17.192,12.410 C17.066,12.572 16.872,12.667 16.667,12.667 L15.333,12.667 L15.333,14.000 C15.333,14.368 15.035,14.667 14.667,14.667 L13.333,14.667 C13.333,15.402 13.931,16.000 14.667,16.000 C15.035,16.000 15.333,16.299 15.333,16.667 C15.333,18.137 14.137,19.333 12.667,19.333 L12.667,20.000 L16.204,20.000 C17.535,20.000 18.807,20.571 19.692,21.566 L22.667,24.913 L22.667,18.667 L22.667,12.000 C22.667,11.776 22.779,11.567 22.967,11.443 C23.153,11.321 23.391,11.300 23.596,11.387 L28.005,13.277 L39.079,8.717 C39.285,8.633 39.519,8.655 39.705,8.779 C39.889,8.903 40.000,9.111 40.000,9.333 L40.000,23.333 C40.000,23.555 39.889,23.763 39.705,23.887 ZM9.333,29.843 L9.977,28.555 L9.512,25.299 C9.453,25.315 9.394,25.333 9.333,25.333 C9.273,25.333 9.213,25.315 9.155,25.299 L8.689,28.555 L9.333,29.843 ZM9.333,21.255 L11.333,20.255 L11.333,19.333 L7.333,19.333 L7.333,20.255 L9.333,21.255 ZM8.943,23.333 L9.333,23.724 L9.724,23.333 L9.333,22.943 L8.943,23.333 ZM3.672,21.502 C2.322,21.928 1.333,23.177 1.333,24.667 L1.333,38.667 L8.667,38.667 L8.667,31.491 L3.672,21.502 ZM7.960,24.236 L7.915,24.191 L6.859,24.895 L7.642,26.460 L7.960,24.236 ZM5.079,21.333 L6.259,23.693 L7.575,22.815 L8.208,22.183 L6.509,21.333 L5.079,21.333 ZM2.667,10.000 C2.299,10.000 2.000,10.299 2.000,10.667 C2.000,11.034 2.299,11.333 2.667,11.333 L3.333,11.333 L3.333,10.000 L2.667,10.000 ZM17.249,1.333 L5.333,1.333 C4.231,1.333 3.333,2.231 3.333,3.333 L3.333,8.667 L4.000,8.667 C5.471,8.667 6.667,7.471 6.667,6.000 L6.667,4.000 C6.667,3.632 6.965,3.333 7.333,3.333 L14.667,3.333 C15.907,3.333 16.952,2.482 17.249,1.333 ZM13.882,17.215 C12.793,16.879 12.000,15.864 12.000,14.667 L12.000,14.000 C12.000,13.632 12.299,13.333 12.667,13.333 L14.000,13.333 L14.000,12.000 C14.000,11.632 14.299,11.333 14.667,11.333 L15.813,11.333 L14.146,4.667 L8.000,4.667 L8.000,6.000 C8.000,6.229 7.976,6.453 7.939,6.671 C7.935,6.698 7.933,6.725 7.927,6.751 C7.888,6.957 7.831,7.157 7.761,7.351 C7.749,7.384 7.737,7.417 7.724,7.450 C7.651,7.639 7.563,7.821 7.463,7.995 C7.445,8.024 7.427,8.053 7.410,8.081 C7.303,8.255 7.186,8.423 7.055,8.578 C7.040,8.595 7.024,8.611 7.009,8.628 C6.870,8.787 6.721,8.938 6.558,9.073 C6.555,9.075 6.552,9.078 6.549,9.081 C6.387,9.215 6.211,9.335 6.028,9.443 C6.005,9.456 5.983,9.471 5.959,9.485 C5.781,9.584 5.595,9.669 5.403,9.741 C5.371,9.753 5.339,9.766 5.305,9.777 C5.113,9.845 4.913,9.897 4.709,9.934 C4.694,9.936 4.681,9.942 4.667,9.945 L4.667,12.000 L4.667,16.667 C4.667,17.402 5.265,18.000 6.000,18.000 L6.667,18.000 L12.000,18.000 L12.667,18.000 C13.207,18.000 13.672,17.678 13.882,17.215 ZM12.157,21.333 L10.459,22.183 L11.091,22.815 L12.408,23.693 L13.588,21.333 L12.157,21.333 ZM10.707,24.236 L11.025,26.460 L11.807,24.895 L10.751,24.191 L10.707,24.236 ZM27.333,14.439 L24.000,13.011 L24.000,18.000 L24.146,18.000 L24.687,15.838 C24.761,15.541 25.027,15.333 25.333,15.333 L27.333,15.333 L27.333,14.439 ZM27.333,18.667 L27.333,16.667 L25.854,16.667 L25.313,18.829 C25.239,19.125 24.973,19.333 24.667,19.333 L24.000,19.333 L24.000,20.667 L27.333,20.667 L27.333,18.667 ZM27.333,22.000 L24.000,22.000 L24.000,26.667 C24.000,26.943 23.829,27.191 23.571,27.289 C23.312,27.387 23.020,27.317 22.835,27.109 L18.695,22.452 C18.063,21.741 17.155,21.333 16.204,21.333 L15.079,21.333 L10.000,31.491 L10.000,38.667 L18.000,38.667 L18.000,28.667 C18.000,28.393 18.167,28.147 18.421,28.047 C18.677,27.947 18.967,28.011 19.153,28.212 L21.563,30.793 C22.704,32.016 24.201,32.023 25.222,31.620 C26.243,31.217 27.333,30.192 27.333,28.519 L27.333,22.000 ZM38.667,10.329 L28.667,14.447 L28.667,16.000 L28.667,18.220 L38.667,22.338 L38.667,10.329 ZM12.667,29.333 L16.667,29.333 L16.667,30.667 L12.667,30.667 L12.667,29.333 ZM9.115,8.138 L10.057,7.195 C10.577,7.715 11.423,7.715 11.943,7.195 L12.885,8.138 C12.365,8.658 11.683,8.918 11.000,8.918 C10.317,8.918 9.635,8.658 9.115,8.138 ZM34.817,6.906 L38.150,2.906 L39.174,3.759 L35.841,7.759 L34.817,6.906 ZM32.000,2.000 L33.333,2.000 L33.333,7.333 L32.000,7.333 L32.000,2.000 ZM26.154,3.760 L27.178,2.906 L30.511,6.906 L29.487,7.760 L26.154,3.760 Z"/>
</svg>