<svg 
 xmlns="http://www.w3.org/2000/svg"
 xmlns:xlink="http://www.w3.org/1999/xlink"
 width="50px" height="31px">
<defs>
<linearGradient id="PSgrad_0" x1="0%" x2="0%" y1="100%" y2="0%">
  <stop offset="0%" stop-color="rgb(174,206,86)" stop-opacity="1" />
  <stop offset="52%" stop-color="rgb(70,183,80)" stop-opacity="1" />
  <stop offset="100%" stop-color="rgb(37,131,102)" stop-opacity="1" />
</linearGradient>

</defs>
<path fill-rule="evenodd"  fill="rgb(0, 0, 0)"
 d="M49.167,31.000 C48.706,31.000 48.333,30.635 48.333,30.184 L48.333,27.737 C48.333,25.935 46.841,24.474 45.000,24.474 C43.159,24.474 41.667,25.935 41.667,27.737 L41.667,30.184 C41.667,30.635 41.293,31.000 40.833,31.000 C40.373,31.000 40.000,30.635 40.000,30.184 L40.000,27.737 C40.003,25.035 42.240,22.845 45.000,22.842 C47.760,22.845 49.997,25.035 50.000,27.737 L50.000,30.184 C50.000,30.635 49.627,31.000 49.167,31.000 ZM45.000,15.500 C46.841,15.500 48.333,16.961 48.333,18.763 C48.333,20.565 46.841,22.026 45.000,22.026 C43.159,22.026 41.667,20.565 41.667,18.763 C41.667,16.961 43.159,15.500 45.000,15.500 ZM45.000,20.395 C45.920,20.395 46.667,19.664 46.667,18.763 C46.667,17.862 45.920,17.132 45.000,17.132 C44.079,17.132 43.333,17.862 43.333,18.763 C43.333,19.664 44.079,20.395 45.000,20.395 ZM49.167,15.500 C48.706,15.500 48.333,15.135 48.333,14.684 L48.333,12.237 C48.333,10.435 46.841,8.974 45.000,8.974 C43.159,8.974 41.667,10.435 41.667,12.237 L41.667,14.684 C41.667,15.135 41.293,15.500 40.833,15.500 C40.373,15.500 40.000,15.135 40.000,14.684 L40.000,12.237 C40.003,9.535 42.240,7.345 45.000,7.342 C47.760,7.345 49.997,9.535 50.000,12.237 L50.000,14.684 C50.000,15.135 49.627,15.500 49.167,15.500 ZM45.000,6.526 C43.159,6.526 41.667,5.065 41.667,3.263 C41.667,1.461 43.159,-0.000 45.000,-0.000 C46.841,-0.000 48.333,1.461 48.333,3.263 C48.333,5.065 46.841,6.526 45.000,6.526 ZM45.000,1.632 C44.079,1.632 43.333,2.362 43.333,3.263 C43.333,4.164 44.079,4.895 45.000,4.895 C45.920,4.895 46.667,4.164 46.667,3.263 C46.667,2.362 45.920,1.632 45.000,1.632 ZM35.833,31.000 C35.373,31.000 35.000,30.635 35.000,30.184 L35.000,27.737 C35.000,25.935 33.508,24.474 31.667,24.474 C29.826,24.474 28.333,25.935 28.333,27.737 L28.333,30.184 C28.333,30.635 27.960,31.000 27.500,31.000 C27.040,31.000 26.666,30.635 26.666,30.184 L26.666,27.737 C26.666,25.033 28.905,22.842 31.667,22.842 C34.428,22.842 36.667,25.033 36.667,27.737 L36.667,30.184 C36.667,30.635 36.293,31.000 35.833,31.000 ZM31.667,15.500 C33.508,15.500 35.000,16.961 35.000,18.763 C35.000,20.565 33.508,22.026 31.667,22.026 C29.826,22.026 28.333,20.565 28.333,18.763 C28.333,16.961 29.826,15.500 31.667,15.500 ZM31.667,20.395 C32.587,20.395 33.333,19.664 33.333,18.763 C33.333,17.862 32.587,17.132 31.667,17.132 C30.746,17.132 30.000,17.862 30.000,18.763 C30.000,19.664 30.746,20.395 31.667,20.395 ZM35.833,15.500 C35.373,15.500 35.000,15.135 35.000,14.684 L35.000,12.237 C35.000,10.435 33.508,8.974 31.667,8.974 C29.826,8.974 28.333,10.435 28.333,12.237 L28.333,14.684 C28.333,15.135 27.960,15.500 27.500,15.500 C27.040,15.500 26.666,15.135 26.666,14.684 L26.666,12.237 C26.666,9.533 28.905,7.342 31.667,7.342 C34.428,7.342 36.667,9.533 36.667,12.237 L36.667,14.684 C36.667,15.135 36.293,15.500 35.833,15.500 ZM31.667,6.526 C29.826,6.526 28.333,5.065 28.333,3.263 C28.333,1.461 29.826,-0.000 31.667,-0.000 C33.508,-0.000 35.000,1.461 35.000,3.263 C35.000,5.065 33.508,6.526 31.667,6.526 ZM31.667,1.632 C30.746,1.632 30.000,2.362 30.000,3.263 C30.000,4.164 30.746,4.895 31.667,4.895 C32.587,4.895 33.333,4.164 33.333,3.263 C33.333,2.362 32.587,1.632 31.667,1.632 ZM22.500,31.000 C22.040,31.000 21.667,30.635 21.667,30.184 L21.667,27.737 C21.667,25.935 20.174,24.474 18.333,24.474 C16.492,24.474 15.000,25.935 15.000,27.737 L15.000,30.184 C15.000,30.635 14.627,31.000 14.167,31.000 C13.706,31.000 13.333,30.635 13.333,30.184 L13.333,27.737 C13.333,25.033 15.572,22.842 18.333,22.842 C21.095,22.842 23.333,25.033 23.333,27.737 L23.333,30.184 C23.333,30.635 22.960,31.000 22.500,31.000 ZM18.333,15.500 C20.174,15.500 21.667,16.961 21.667,18.763 C21.667,20.565 20.174,22.026 18.333,22.026 C16.492,22.026 15.000,20.565 15.000,18.763 C15.000,16.961 16.492,15.500 18.333,15.500 ZM18.333,20.395 C19.254,20.395 20.000,19.664 20.000,18.763 C20.000,17.862 19.254,17.132 18.333,17.132 C17.413,17.132 16.667,17.862 16.667,18.763 C16.667,19.664 17.413,20.395 18.333,20.395 ZM22.500,15.500 C22.040,15.500 21.667,15.135 21.667,14.684 L21.667,12.237 C21.667,10.435 20.174,8.974 18.333,8.974 C16.492,8.974 15.000,10.435 15.000,12.237 L15.000,14.684 C15.000,15.135 14.627,15.500 14.167,15.500 C13.706,15.500 13.333,15.135 13.333,14.684 L13.333,12.237 C13.333,9.533 15.572,7.342 18.333,7.342 C21.095,7.342 23.333,9.533 23.333,12.237 L23.333,14.684 C23.333,15.135 22.960,15.500 22.500,15.500 ZM18.333,6.526 C16.492,6.526 15.000,5.065 15.000,3.263 C15.000,1.461 16.492,-0.000 18.333,-0.000 C20.174,-0.000 21.667,1.461 21.667,3.263 C21.667,5.065 20.174,6.526 18.333,6.526 ZM18.333,1.632 C17.413,1.632 16.667,2.362 16.667,3.263 C16.667,4.164 17.413,4.895 18.333,4.895 C19.254,4.895 20.000,4.164 20.000,3.263 C20.000,2.362 19.254,1.632 18.333,1.632 ZM9.167,31.000 C8.706,31.000 8.333,30.635 8.333,30.184 L8.333,27.737 C8.333,25.935 6.841,24.474 5.000,24.474 C3.159,24.474 1.667,25.935 1.667,27.737 L1.667,30.184 C1.667,30.635 1.293,31.000 0.833,31.000 C0.373,31.000 -0.000,30.635 -0.000,30.184 L-0.000,27.737 C-0.000,25.033 2.238,22.842 5.000,22.842 C7.761,22.842 10.000,25.033 10.000,27.737 L10.000,30.184 C10.000,30.635 9.627,31.000 9.167,31.000 ZM5.000,15.500 C6.841,15.500 8.333,16.961 8.333,18.763 C8.333,20.565 6.841,22.026 5.000,22.026 C3.159,22.026 1.667,20.565 1.667,18.763 C1.667,16.961 3.159,15.500 5.000,15.500 ZM5.000,20.395 C5.920,20.395 6.667,19.664 6.667,18.763 C6.667,17.862 5.920,17.132 5.000,17.132 C4.079,17.132 3.333,17.862 3.333,18.763 C3.333,19.664 4.079,20.395 5.000,20.395 ZM9.167,15.500 C8.706,15.500 8.333,15.135 8.333,14.684 L8.333,12.237 C8.333,10.435 6.841,8.974 5.000,8.974 C3.159,8.974 1.667,10.435 1.667,12.237 L1.667,14.684 C1.667,15.135 1.293,15.500 0.833,15.500 C0.373,15.500 -0.000,15.135 -0.000,14.684 L-0.000,12.237 C-0.000,9.533 2.238,7.342 5.000,7.342 C7.761,7.342 10.000,9.533 10.000,12.237 L10.000,14.684 C10.000,15.135 9.627,15.500 9.167,15.500 ZM5.000,6.526 C3.159,6.526 1.667,5.065 1.667,3.263 C1.667,1.461 3.159,-0.000 5.000,-0.000 C6.841,-0.000 8.333,1.461 8.333,3.263 C8.333,5.065 6.841,6.526 5.000,6.526 ZM5.000,1.632 C4.079,1.632 3.333,2.362 3.333,3.263 C3.333,4.164 4.079,4.895 5.000,4.895 C5.920,4.895 6.667,4.164 6.667,3.263 C6.667,2.362 5.920,1.632 5.000,1.632 Z"/>
<path fill="url(#PSgrad_0)"
 d="M49.167,31.000 C48.706,31.000 48.333,30.635 48.333,30.184 L48.333,27.737 C48.333,25.935 46.841,24.474 45.000,24.474 C43.159,24.474 41.667,25.935 41.667,27.737 L41.667,30.184 C41.667,30.635 41.293,31.000 40.833,31.000 C40.373,31.000 40.000,30.635 40.000,30.184 L40.000,27.737 C40.003,25.035 42.240,22.845 45.000,22.842 C47.760,22.845 49.997,25.035 50.000,27.737 L50.000,30.184 C50.000,30.635 49.627,31.000 49.167,31.000 ZM45.000,15.500 C46.841,15.500 48.333,16.961 48.333,18.763 C48.333,20.565 46.841,22.026 45.000,22.026 C43.159,22.026 41.667,20.565 41.667,18.763 C41.667,16.961 43.159,15.500 45.000,15.500 ZM45.000,20.395 C45.920,20.395 46.667,19.664 46.667,18.763 C46.667,17.862 45.920,17.132 45.000,17.132 C44.079,17.132 43.333,17.862 43.333,18.763 C43.333,19.664 44.079,20.395 45.000,20.395 ZM49.167,15.500 C48.706,15.500 48.333,15.135 48.333,14.684 L48.333,12.237 C48.333,10.435 46.841,8.974 45.000,8.974 C43.159,8.974 41.667,10.435 41.667,12.237 L41.667,14.684 C41.667,15.135 41.293,15.500 40.833,15.500 C40.373,15.500 40.000,15.135 40.000,14.684 L40.000,12.237 C40.003,9.535 42.240,7.345 45.000,7.342 C47.760,7.345 49.997,9.535 50.000,12.237 L50.000,14.684 C50.000,15.135 49.627,15.500 49.167,15.500 ZM45.000,6.526 C43.159,6.526 41.667,5.065 41.667,3.263 C41.667,1.461 43.159,-0.000 45.000,-0.000 C46.841,-0.000 48.333,1.461 48.333,3.263 C48.333,5.065 46.841,6.526 45.000,6.526 ZM45.000,1.632 C44.079,1.632 43.333,2.362 43.333,3.263 C43.333,4.164 44.079,4.895 45.000,4.895 C45.920,4.895 46.667,4.164 46.667,3.263 C46.667,2.362 45.920,1.632 45.000,1.632 ZM35.833,31.000 C35.373,31.000 35.000,30.635 35.000,30.184 L35.000,27.737 C35.000,25.935 33.508,24.474 31.667,24.474 C29.826,24.474 28.333,25.935 28.333,27.737 L28.333,30.184 C28.333,30.635 27.960,31.000 27.500,31.000 C27.040,31.000 26.666,30.635 26.666,30.184 L26.666,27.737 C26.666,25.033 28.905,22.842 31.667,22.842 C34.428,22.842 36.667,25.033 36.667,27.737 L36.667,30.184 C36.667,30.635 36.293,31.000 35.833,31.000 ZM31.667,15.500 C33.508,15.500 35.000,16.961 35.000,18.763 C35.000,20.565 33.508,22.026 31.667,22.026 C29.826,22.026 28.333,20.565 28.333,18.763 C28.333,16.961 29.826,15.500 31.667,15.500 ZM31.667,20.395 C32.587,20.395 33.333,19.664 33.333,18.763 C33.333,17.862 32.587,17.132 31.667,17.132 C30.746,17.132 30.000,17.862 30.000,18.763 C30.000,19.664 30.746,20.395 31.667,20.395 ZM35.833,15.500 C35.373,15.500 35.000,15.135 35.000,14.684 L35.000,12.237 C35.000,10.435 33.508,8.974 31.667,8.974 C29.826,8.974 28.333,10.435 28.333,12.237 L28.333,14.684 C28.333,15.135 27.960,15.500 27.500,15.500 C27.040,15.500 26.666,15.135 26.666,14.684 L26.666,12.237 C26.666,9.533 28.905,7.342 31.667,7.342 C34.428,7.342 36.667,9.533 36.667,12.237 L36.667,14.684 C36.667,15.135 36.293,15.500 35.833,15.500 ZM31.667,6.526 C29.826,6.526 28.333,5.065 28.333,3.263 C28.333,1.461 29.826,-0.000 31.667,-0.000 C33.508,-0.000 35.000,1.461 35.000,3.263 C35.000,5.065 33.508,6.526 31.667,6.526 ZM31.667,1.632 C30.746,1.632 30.000,2.362 30.000,3.263 C30.000,4.164 30.746,4.895 31.667,4.895 C32.587,4.895 33.333,4.164 33.333,3.263 C33.333,2.362 32.587,1.632 31.667,1.632 ZM22.500,31.000 C22.040,31.000 21.667,30.635 21.667,30.184 L21.667,27.737 C21.667,25.935 20.174,24.474 18.333,24.474 C16.492,24.474 15.000,25.935 15.000,27.737 L15.000,30.184 C15.000,30.635 14.627,31.000 14.167,31.000 C13.706,31.000 13.333,30.635 13.333,30.184 L13.333,27.737 C13.333,25.033 15.572,22.842 18.333,22.842 C21.095,22.842 23.333,25.033 23.333,27.737 L23.333,30.184 C23.333,30.635 22.960,31.000 22.500,31.000 ZM18.333,15.500 C20.174,15.500 21.667,16.961 21.667,18.763 C21.667,20.565 20.174,22.026 18.333,22.026 C16.492,22.026 15.000,20.565 15.000,18.763 C15.000,16.961 16.492,15.500 18.333,15.500 ZM18.333,20.395 C19.254,20.395 20.000,19.664 20.000,18.763 C20.000,17.862 19.254,17.132 18.333,17.132 C17.413,17.132 16.667,17.862 16.667,18.763 C16.667,19.664 17.413,20.395 18.333,20.395 ZM22.500,15.500 C22.040,15.500 21.667,15.135 21.667,14.684 L21.667,12.237 C21.667,10.435 20.174,8.974 18.333,8.974 C16.492,8.974 15.000,10.435 15.000,12.237 L15.000,14.684 C15.000,15.135 14.627,15.500 14.167,15.500 C13.706,15.500 13.333,15.135 13.333,14.684 L13.333,12.237 C13.333,9.533 15.572,7.342 18.333,7.342 C21.095,7.342 23.333,9.533 23.333,12.237 L23.333,14.684 C23.333,15.135 22.960,15.500 22.500,15.500 ZM18.333,6.526 C16.492,6.526 15.000,5.065 15.000,3.263 C15.000,1.461 16.492,-0.000 18.333,-0.000 C20.174,-0.000 21.667,1.461 21.667,3.263 C21.667,5.065 20.174,6.526 18.333,6.526 ZM18.333,1.632 C17.413,1.632 16.667,2.362 16.667,3.263 C16.667,4.164 17.413,4.895 18.333,4.895 C19.254,4.895 20.000,4.164 20.000,3.263 C20.000,2.362 19.254,1.632 18.333,1.632 ZM9.167,31.000 C8.706,31.000 8.333,30.635 8.333,30.184 L8.333,27.737 C8.333,25.935 6.841,24.474 5.000,24.474 C3.159,24.474 1.667,25.935 1.667,27.737 L1.667,30.184 C1.667,30.635 1.293,31.000 0.833,31.000 C0.373,31.000 -0.000,30.635 -0.000,30.184 L-0.000,27.737 C-0.000,25.033 2.238,22.842 5.000,22.842 C7.761,22.842 10.000,25.033 10.000,27.737 L10.000,30.184 C10.000,30.635 9.627,31.000 9.167,31.000 ZM5.000,15.500 C6.841,15.500 8.333,16.961 8.333,18.763 C8.333,20.565 6.841,22.026 5.000,22.026 C3.159,22.026 1.667,20.565 1.667,18.763 C1.667,16.961 3.159,15.500 5.000,15.500 ZM5.000,20.395 C5.920,20.395 6.667,19.664 6.667,18.763 C6.667,17.862 5.920,17.132 5.000,17.132 C4.079,17.132 3.333,17.862 3.333,18.763 C3.333,19.664 4.079,20.395 5.000,20.395 ZM9.167,15.500 C8.706,15.500 8.333,15.135 8.333,14.684 L8.333,12.237 C8.333,10.435 6.841,8.974 5.000,8.974 C3.159,8.974 1.667,10.435 1.667,12.237 L1.667,14.684 C1.667,15.135 1.293,15.500 0.833,15.500 C0.373,15.500 -0.000,15.135 -0.000,14.684 L-0.000,12.237 C-0.000,9.533 2.238,7.342 5.000,7.342 C7.761,7.342 10.000,9.533 10.000,12.237 L10.000,14.684 C10.000,15.135 9.627,15.500 9.167,15.500 ZM5.000,6.526 C3.159,6.526 1.667,5.065 1.667,3.263 C1.667,1.461 3.159,-0.000 5.000,-0.000 C6.841,-0.000 8.333,1.461 8.333,3.263 C8.333,5.065 6.841,6.526 5.000,6.526 ZM5.000,1.632 C4.079,1.632 3.333,2.362 3.333,3.263 C3.333,4.164 4.079,4.895 5.000,4.895 C5.920,4.895 6.667,4.164 6.667,3.263 C6.667,2.362 5.920,1.632 5.000,1.632 Z"/>
</svg>