<svg 
 xmlns="http://www.w3.org/2000/svg"
 xmlns:xlink="http://www.w3.org/1999/xlink"
 width="15px" height="15px">
<path fill-rule="evenodd"  fill="rgb(201, 195, 195)"
 d="M14.408,12.885 L11.522,9.999 C12.218,8.995 12.566,7.876 12.566,6.642 C12.566,5.840 12.410,5.073 12.098,4.341 C11.787,3.609 11.366,2.977 10.836,2.447 C10.306,1.917 9.675,1.496 8.943,1.185 C8.211,0.874 7.444,0.718 6.642,0.718 C5.840,0.718 5.072,0.874 4.341,1.185 C3.608,1.496 2.977,1.917 2.447,2.447 C1.917,2.977 1.496,3.609 1.185,4.341 C0.874,5.073 0.718,5.840 0.718,6.642 C0.718,7.444 0.874,8.211 1.185,8.943 C1.496,9.675 1.917,10.306 2.447,10.836 C2.977,11.366 3.608,11.787 4.341,12.098 C5.073,12.410 5.840,12.565 6.642,12.565 C7.876,12.565 8.995,12.217 9.999,11.522 L12.885,14.399 C13.087,14.613 13.339,14.719 13.642,14.719 C13.934,14.719 14.187,14.613 14.399,14.399 C14.612,14.186 14.719,13.934 14.719,13.642 C14.719,13.345 14.616,13.093 14.408,12.885 ZM9.305,9.305 C8.567,10.042 7.680,10.411 6.642,10.411 C5.604,10.411 4.716,10.042 3.979,9.305 C3.241,8.567 2.872,7.680 2.872,6.642 C2.872,5.604 3.241,4.716 3.979,3.979 C4.716,3.241 5.604,2.872 6.642,2.872 C7.679,2.872 8.567,3.241 9.305,3.979 C10.043,4.716 10.411,5.604 10.411,6.642 C10.411,7.680 10.042,8.567 9.305,9.305 Z"/>
</svg>